<mxfile host="Electron" modified="2023-12-21T10:52:57.039Z" agent="Mozilla/5.0 (Windows NT 10.0; Win64; x64) AppleWebKit/537.36 (KHTML, like Gecko) draw.io/22.1.2 Chrome/114.0.5735.289 Electron/25.9.4 Safari/537.36" etag="6S0FC7COb2mqEvJmEd_z" version="22.1.2" type="device">
  <diagram name="Страница — 1" id="4Ds4IMRTSf8P3ggAueCx">
    <mxGraphModel dx="1036" dy="614" grid="1" gridSize="10" guides="1" tooltips="1" connect="1" arrows="1" fold="1" page="1" pageScale="1" pageWidth="827" pageHeight="1169" math="0" shadow="0">
      <root>
        <mxCell id="0" />
        <mxCell id="1" parent="0" />
        <mxCell id="6oKWzD1CSFi1yMfGfUch-8" style="edgeStyle=orthogonalEdgeStyle;rounded=0;orthogonalLoop=1;jettySize=auto;html=1;entryX=0.5;entryY=0;entryDx=0;entryDy=0;" edge="1" parent="1" source="6oKWzD1CSFi1yMfGfUch-1" target="6oKWzD1CSFi1yMfGfUch-2">
          <mxGeometry relative="1" as="geometry" />
        </mxCell>
        <mxCell id="6oKWzD1CSFi1yMfGfUch-1" value="Авторизация&lt;br&gt;" style="rounded=0;whiteSpace=wrap;html=1;" vertex="1" parent="1">
          <mxGeometry x="280" y="120" width="120" height="60" as="geometry" />
        </mxCell>
        <mxCell id="6oKWzD1CSFi1yMfGfUch-9" style="edgeStyle=orthogonalEdgeStyle;rounded=0;orthogonalLoop=1;jettySize=auto;html=1;" edge="1" parent="1" source="6oKWzD1CSFi1yMfGfUch-2" target="6oKWzD1CSFi1yMfGfUch-3">
          <mxGeometry relative="1" as="geometry" />
        </mxCell>
        <mxCell id="6oKWzD1CSFi1yMfGfUch-2" value="Основное меню" style="rounded=0;whiteSpace=wrap;html=1;" vertex="1" parent="1">
          <mxGeometry x="280" y="230" width="120" height="60" as="geometry" />
        </mxCell>
        <mxCell id="6oKWzD1CSFi1yMfGfUch-10" style="edgeStyle=orthogonalEdgeStyle;rounded=0;orthogonalLoop=1;jettySize=auto;html=1;" edge="1" parent="1" source="6oKWzD1CSFi1yMfGfUch-3" target="6oKWzD1CSFi1yMfGfUch-4">
          <mxGeometry relative="1" as="geometry" />
        </mxCell>
        <mxCell id="6oKWzD1CSFi1yMfGfUch-15" style="edgeStyle=orthogonalEdgeStyle;rounded=0;orthogonalLoop=1;jettySize=auto;html=1;entryX=0;entryY=0.5;entryDx=0;entryDy=0;" edge="1" parent="1" source="6oKWzD1CSFi1yMfGfUch-3" target="6oKWzD1CSFi1yMfGfUch-14">
          <mxGeometry relative="1" as="geometry" />
        </mxCell>
        <mxCell id="6oKWzD1CSFi1yMfGfUch-3" value="Библиотека&lt;br&gt;" style="rounded=0;whiteSpace=wrap;html=1;" vertex="1" parent="1">
          <mxGeometry x="280" y="350" width="120" height="60" as="geometry" />
        </mxCell>
        <mxCell id="6oKWzD1CSFi1yMfGfUch-11" style="edgeStyle=orthogonalEdgeStyle;rounded=0;orthogonalLoop=1;jettySize=auto;html=1;entryX=0.5;entryY=0;entryDx=0;entryDy=0;" edge="1" parent="1" source="6oKWzD1CSFi1yMfGfUch-4" target="6oKWzD1CSFi1yMfGfUch-6">
          <mxGeometry relative="1" as="geometry" />
        </mxCell>
        <mxCell id="6oKWzD1CSFi1yMfGfUch-12" style="edgeStyle=orthogonalEdgeStyle;rounded=0;orthogonalLoop=1;jettySize=auto;html=1;" edge="1" parent="1" source="6oKWzD1CSFi1yMfGfUch-4" target="6oKWzD1CSFi1yMfGfUch-7">
          <mxGeometry relative="1" as="geometry" />
        </mxCell>
        <mxCell id="6oKWzD1CSFi1yMfGfUch-13" style="edgeStyle=orthogonalEdgeStyle;rounded=0;orthogonalLoop=1;jettySize=auto;html=1;entryX=0.5;entryY=0;entryDx=0;entryDy=0;" edge="1" parent="1" source="6oKWzD1CSFi1yMfGfUch-4" target="6oKWzD1CSFi1yMfGfUch-5">
          <mxGeometry relative="1" as="geometry" />
        </mxCell>
        <mxCell id="6oKWzD1CSFi1yMfGfUch-4" value="Просмотр игры&lt;br&gt;" style="rounded=0;whiteSpace=wrap;html=1;" vertex="1" parent="1">
          <mxGeometry x="280" y="460" width="120" height="60" as="geometry" />
        </mxCell>
        <mxCell id="6oKWzD1CSFi1yMfGfUch-5" value="Добавление заметок" style="rounded=0;whiteSpace=wrap;html=1;" vertex="1" parent="1">
          <mxGeometry x="60" y="580" width="120" height="60" as="geometry" />
        </mxCell>
        <mxCell id="6oKWzD1CSFi1yMfGfUch-6" value="Удаление/ редактирование заметок" style="rounded=0;whiteSpace=wrap;html=1;" vertex="1" parent="1">
          <mxGeometry x="280" y="580" width="120" height="60" as="geometry" />
        </mxCell>
        <mxCell id="6oKWzD1CSFi1yMfGfUch-7" value="Добавление игры в библиотеку" style="rounded=0;whiteSpace=wrap;html=1;" vertex="1" parent="1">
          <mxGeometry x="490" y="580" width="120" height="60" as="geometry" />
        </mxCell>
        <mxCell id="6oKWzD1CSFi1yMfGfUch-18" style="edgeStyle=orthogonalEdgeStyle;rounded=0;orthogonalLoop=1;jettySize=auto;html=1;" edge="1" parent="1" source="6oKWzD1CSFi1yMfGfUch-14" target="6oKWzD1CSFi1yMfGfUch-17">
          <mxGeometry relative="1" as="geometry" />
        </mxCell>
        <mxCell id="6oKWzD1CSFi1yMfGfUch-19" style="edgeStyle=orthogonalEdgeStyle;rounded=0;orthogonalLoop=1;jettySize=auto;html=1;entryX=0.5;entryY=1;entryDx=0;entryDy=0;" edge="1" parent="1" source="6oKWzD1CSFi1yMfGfUch-14" target="6oKWzD1CSFi1yMfGfUch-16">
          <mxGeometry relative="1" as="geometry" />
        </mxCell>
        <mxCell id="6oKWzD1CSFi1yMfGfUch-14" value="Окно администратора" style="rounded=0;whiteSpace=wrap;html=1;" vertex="1" parent="1">
          <mxGeometry x="500" y="350" width="120" height="60" as="geometry" />
        </mxCell>
        <mxCell id="6oKWzD1CSFi1yMfGfUch-16" value="Добавление новой игры" style="rounded=0;whiteSpace=wrap;html=1;" vertex="1" parent="1">
          <mxGeometry x="660" y="260" width="120" height="60" as="geometry" />
        </mxCell>
        <mxCell id="6oKWzD1CSFi1yMfGfUch-17" value="Удаление/ редактирование имеющейся игры" style="rounded=0;whiteSpace=wrap;html=1;" vertex="1" parent="1">
          <mxGeometry x="660" y="460" width="120" height="60" as="geometry" />
        </mxCell>
      </root>
    </mxGraphModel>
  </diagram>
</mxfile>
